<svg xmlns="http://www.w3.org/2000/svg" width="330" height="332" viewBox="0 0 330 332" xmlns:xlink="http://www.w3.org/1999/xlink">
  <title>
    logotype
  </title>
  <defs>
    <path id="a" d="M269.9,0.7 L60.1,0.7 C27.4,0.7 0.8,27 0.8,59.5 L0.8,104.1 L329.2,104.1 L329.2,59.5 C329.2,27 302.6,0.7 269.9,0.7 L269.9,0.7 Z"/>
    <path id="c" d="M269.9,0.7 L60.1,0.7 C27.4,0.7 0.8,27 0.8,59.5 L0.8,104.1 L329.2,104.1 L329.2,59.5 C329.2,27 302.6,0.7 269.9,0.7 L269.9,0.7 Z"/>
    <path id="e" d="M269.9,0.7 L60.1,0.7 C27.4,0.7 0.8,27 0.8,59.5 L0.8,104.1 L329.2,104.1 L329.2,59.5 C329.2,27 302.6,0.7 269.9,0.7 L269.9,0.7 Z"/>
    <path id="g" d="M269.9,0.7 L60.1,0.7 C27.4,0.7 0.8,27 0.8,59.5 L0.8,104.1 L329.2,104.1 L329.2,59.5 C329.2,27 302.6,0.7 269.9,0.7 L269.9,0.7 Z"/>
    <radialGradient id="i" cx="50.085%" cy="49.959%" r="50.002%" fx="50.085%" fy="49.959%">
      <stop stop-color="#FFFFFF" stop-opacity=".6" offset="0%"/>
      <stop stop-color="#585565" offset="53.4%"/>
      <stop stop-color="#1D253E" offset="100%"/>
    </radialGradient>
    <radialGradient id="j" cx="50.022%" cy="50.009%" r="49.993%" fx="50.022%" fy="50.009%">
      <stop stop-color="#FFFFFF" offset="0%"/>
      <stop stop-color="#6D9BB7" offset="53.4%"/>
      <stop stop-color="#1D253E" offset="100%"/>
    </radialGradient>
    <radialGradient id="k" cx="50.044%" cy="50.017%" r="50.027%" fx="50.044%" fy="50.017%">
      <stop stop-color="#FFFFFF" offset="0%"/>
      <stop stop-color="#585565" offset="53.4%"/>
      <stop stop-color="#1D253E" offset="100%"/>
    </radialGradient>
  </defs>
  <g fill="none" fill-rule="evenodd">
    <path fill="#D6C9B5" d="M329.2,272.5 C329.2,305 302.7,331.3 269.9,331.3 L60.1,331.3 C27.4,331.3 0.8,305 0.8,272.5 L0.8,59.5 C0.8,27 27.3,0.7 60.1,0.7 L269.9,0.7 C302.6,0.7 329.2,27 329.2,59.5 L329.2,272.5 Z"/>
    <path fill="#5D4D48" d="M269.9,0.7 L60.1,0.7 C27.4,0.7 0.8,27 0.8,59.5 L0.8,104.1 L329.2,104.1 L329.2,59.5 C329.2,27 302.6,0.7 269.9,0.7 L269.9,0.7 Z"/>
    <mask id="b" fill="white">
      <use xlink:href="#a"/>
    </mask>
    <polygon fill="#EE4741" points="23 -6.1 38.7 -6.1 38.7 101 23 101" mask="url(#b)"/>
    <mask id="d" fill="white">
      <use xlink:href="#c"/>
    </mask>
    <polygon fill="#FFD134" points="38.7 -6.1 54.4 -6.1 54.4 101 38.7 101" mask="url(#d)"/>
    <mask id="f" fill="white">
      <use xlink:href="#e"/>
    </mask>
    <polygon fill="#BBDB9B" points="54.3 -6.1 70 -6.1 70 101 54.3 101" mask="url(#f)"/>
    <mask id="h" fill="white">
      <use xlink:href="#g"/>
    </mask>
    <polygon fill="#4B8BC9" points="70 -6.1 85.7 -6.1 85.7 101 70 101" mask="url(#h)"/>
    <path fill="#3B241B" d="M304.9,73.3 C304.9,81.4 298.4,87.9 290.3,87.9 L253.1,87.9 C245,87.9 238.5,81.4 238.5,73.3 L238.5,36.1 C238.5,28 245,21.5 253.1,21.5 L290.3,21.5 C298.4,21.5 304.9,28 304.9,36.1 L304.9,73.3 Z"/>
    <circle cx="271.7" cy="54.7" r="20.6" fill="url(#i)"/>
    <path d="M269.9,0.7 L60.1,0.7 C27.4,0.7 0.8,27 0.8,59.5 L0.8,104.1 L329.2,104.1 L329.2,59.5 C329.2,27 302.6,0.7 269.9,0.7 L269.9,0.7 Z"/>
    <path fill="#675851" d="M91.7,110.3 C91.7,118.4 85.2,124.9 77.1,124.9 L34,124.9 C25.9,124.9 19.4,118.4 19.4,110.3 L19.4,106.9 C19.4,98.8 25.9,92.3 34,92.3 L77.1,92.3 C85.2,92.3 91.7,98.8 91.7,106.9 L91.7,110.3 L91.7,110.3 Z"/>
    <circle cx="165.1" cy="165.6" r="86.4" fill="#E4DFD6"/>
    <circle cx="165.1" cy="165.6" r="73.4" fill="url(#j)" stroke="#58595B" stroke-width="6"/>
    <circle cx="165.1" cy="165.6" r="40.7" fill="#546469"/>
    <circle cx="165.1" cy="165.6" r="37.7" fill="url(#k)"/>
    <text fill="#FFFFFF" stroke="#FFFFFF" font-family="Helvetica" font-size="23.526">
      <tspan x="28.555" y="115.72">Insta</tspan>
    </text>
    <path fill="#FFFFFF" d="M144.8,218.3 C144.8,224.7 145.6,230.9 147.2,236.8 C152.9,238.2 158.9,239 165.1,239 C205.6,239 238.5,206.1 238.5,165.6 C238.5,160.2 237.9,154.9 236.8,149.8 C230.3,147.8 223.4,146.8 216.2,146.8 C176.8,146.8 144.8,178.8 144.8,218.3 L144.8,218.3 Z" opacity=".2"/>
    <path fill="#FFFFFF" d="M118.3,120.8 L132.1,134 C137.2,128.7 143.5,124.7 150.6,122.3 L144.5,104.2 C134.5,107.5 125.5,113.3 118.3,120.8 L118.3,120.8 Z M104.1,143.8 L122.1,150.2 C123.6,146.1 125.6,142.3 128.1,138.9 L112.6,127.7 C109,132.6 106.2,138 104.1,143.8 Z M279.2,38.1 L274.3,46.7 C276.2,47.8 278,49.2 279.5,50.8 L286.6,43.9 C284.5,41.6 282,39.6 279.2,38.1 L279.2,38.1 Z" opacity=".4"/>
  </g>
</svg>
